<?xml version="1.0" encoding="iso-8859-1"?>
<!-- Generator: Adobe Illustrator 19.0.0, SVG Export Plug-In . SVG Version: 6.00 Build 0)  -->
<svg version="1.1" id="Layer_1" xmlns="http://www.w3.org/2000/svg" xmlns:xlink="http://www.w3.org/1999/xlink" x="0px" y="0px"
	 viewBox="0 0 512 512" style="enable-background:new 0 0 512 512;" xml:space="preserve">
<g>
	<g>
		<path d="M314.904,95.635c-15.994,0-29.005,13.011-29.005,29.005c0,15.994,13.011,29.005,29.005,29.005
			c15.994,0,29.005-13.011,29.005-29.005C343.909,108.645,330.898,95.635,314.904,95.635z M314.904,134.308
			c-5.335,0-9.668-4.334-9.668-9.668c0-5.334,4.334-9.668,9.668-9.668c5.335,0,9.668,4.334,9.668,9.668
			C324.573,129.974,320.239,134.308,314.904,134.308z"/>
	</g>
</g>
<g>
	<g>
		<path d="M496.487,205.612c-13.228-16.532-33.594-36.889-55.149-58.444c-29.052-29.061-83.144-83.153-78.593-96.815
			c7.138-21.404,19.573-22.367,19.837-22.396c4.636,0,8.62-3.286,9.498-7.837c0.869-4.551-1.605-9.083-5.91-10.811
			c-2.096-0.831-50.919-19.988-92.538-0.812c-20.724-1.048-150.775-2.946-230.614,94.965
			c-69.736,85.542-79.206,220.731-28.127,401.19c1.171,4.164,4.976,7.348,9.3,7.348h309.386c3.475,0,6.675-2.174,8.393-5.186
			c1.728-3.021,1.699-6.878-0.066-9.871c-31.12-52.656-104.435-192.2-106.984-262.954c4.749,10.556,11.972,20.939,23.151,28.493
			c17.042,11.528,39.778,13.889,67.537,7.072c6.496-0.661,72.135-6.29,96.362,34.101c2.596,4.315,8.063,5.925,12.614,3.668
			c1.879-0.944,46.161-23.437,53.733-57.908C511.632,234.317,507.647,219.576,496.487,205.612z M489.434,245.229
			c-3.767,17.278-23.434,32.715-36.237,40.665c-34.717-44.385-107.248-35.897-110.487-35.491c-0.387,0.047-0.765,0.123-1.143,0.217
			c-22.5,5.618-40.231,4.22-52.666-4.192c-18.874-12.765-22.49-38.919-24.218-51.495c-0.888-6.402-1.983-14.37-10.528-14.833
			c-8.894-0.396-9.876,3.779-16.306,29.527c-17.26,69.009,70.68,232.278,99.015,283.036H51.528
			C4.499,321.051,13.364,195.417,77.898,116.135c78.612-96.579,215.583-88.115,216.97-88.049c1.813,0.161,3.484-0.295,5.023-1.069
			c19.063-9.527,41.298-8.434,57.33-5.526c-4.806,5.203-9.394,12.491-12.812,22.764c-7.78,23.321,26.267,59.603,83.257,116.593
			c21.168,21.171,41.156,41.152,53.714,56.853C488.821,226.992,491.455,235.995,489.434,245.229z"/>
	</g>
</g>
<g>
</g>
<g>
</g>
<g>
</g>
<g>
</g>
<g>
</g>
<g>
</g>
<g>
</g>
<g>
</g>
<g>
</g>
<g>
</g>
<g>
</g>
<g>
</g>
<g>
</g>
<g>
</g>
<g>
</g>
</svg>
